<?xml version="1.0" encoding="UTF-8"?>
<svg version="1.1" xmlns="http://www.w3.org/2000/svg" width="237" height="183">
<path d="M0 0 C78.21 0 156.42 0 237 0 C237 60.39 237 120.78 237 183 C158.79 183 80.58 183 0 183 C0 122.61 0 62.22 0 0 Z " fill="#4CA233" transform="translate(0,0)"/>
<path d="M0 0 C6.6 0 13.2 0 20 0 C20 0.99 20 1.98 20 3 C26.6 3 33.2 3 40 3 C40 3.66 40 4.32 40 5 C38.35 5 36.7 5 35 5 C35 5.99 35 6.98 35 8 C37.64 8 40.28 8 43 8 C43 8.99 43 9.98 43 11 C41.35 11 39.7 11 38 11 C38 11.99 38 12.98 38 14 C37.01 14 36.02 14 35 14 C35 14.99 35 15.98 35 17 C36.65 17 38.3 17 40 17 C40 17.66 40 18.32 40 19 C38.35 19 36.7 19 35 19 C35 19.99 35 20.98 35 22 C34.01 22 33.02 22 32 22 C32 22.99 32 23.98 32 25 C32.99 25 33.98 25 35 25 C35 28.96 35 32.92 35 37 C35.99 37 36.98 37 38 37 C38 36.01 38 35.02 38 34 C39.65 34 41.3 34 43 34 C43 34.66 43 35.32 43 36 C42.01 36 41.02 36 40 36 C40 36.99 40 37.98 40 39 C39.34 39 38.68 39 38 39 C38 39.99 38 40.98 38 42 C37.01 42 36.02 42 35 42 C35 42.99 35 43.98 35 45 C33.02 45 31.04 45 29 45 C29 45.99 29 46.98 29 48 C28.01 48 27.02 48 26 48 C26 48.99 26 49.98 26 51 C26.99 51 27.98 51 29 51 C29 52.98 29 54.96 29 57 C29.99 57 30.98 57 32 57 C32 58.65 32 60.3 32 62 C32.99 62 33.98 62 35 62 C35 63.98 35 65.96 35 68 C35.99 68 36.98 68 38 68 C38 68.99 38 69.98 38 71 C37.01 71 36.02 71 35 71 C35 71.99 35 72.98 35 74 C34.01 74 33.02 74 32 74 C32 72.02 32 70.04 32 68 C31.01 68 30.02 68 29 68 C29 67.01 29 66.02 29 65 C28.01 65 27.02 65 26 65 C26 64.34 26 63.68 26 63 C25.01 63 24.02 63 23 63 C23 65.64 23 68.28 23 71 C22.01 71 21.02 71 20 71 C20 73.64 20 76.28 20 79 C19.34 79 18.68 79 18 79 C18 79.99 18 80.98 18 82 C14.04 82 10.08 82 6 82 C6 82.99 6 83.98 6 85 C5.01 85 4.02 85 3 85 C3 83.35 3 81.7 3 80 C2.01 80 1.02 80 0 80 C0 78.02 0 76.04 0 74 C-0.66 74 -1.32 74 -2 74 C-2 72.02 -2 70.04 -2 68 C-2.99 68 -3.98 68 -5 68 C-5 67.01 -5 66.02 -5 65 C-5.99 65 -6.98 65 -8 65 C-8 65.99 -8 66.98 -8 68 C-8.99 68 -9.98 68 -11 68 C-11 68.99 -11 69.98 -11 71 C-11.99 71 -12.98 71 -14 71 C-14 70.01 -14 69.02 -14 68 C-14.99 68 -15.98 68 -17 68 C-17 67.01 -17 66.02 -17 65 C-16.01 65 -15.02 65 -14 65 C-14 64.34 -14 63.68 -14 63 C-13.01 63 -12.02 63 -11 63 C-11 62.01 -11 61.02 -11 60 C-10.01 60 -9.02 60 -8 60 C-8 58.02 -8 56.04 -8 54 C-7.01 54 -6.02 54 -5 54 C-5 53.01 -5 52.02 -5 51 C-4.01 51 -3.02 51 -2 51 C-2 50.01 -2 49.02 -2 48 C-1.34 48 -0.68 48 0 48 C0 50.97 0 53.94 0 57 C6.93 57 13.86 57 21 57 C21 55.02 21 53.04 21 51 C21.66 51 22.32 51 23 51 C23 49.02 23 47.04 23 45 C23.99 45 24.98 45 26 45 C26 43.35 26 41.7 26 40 C26.99 40 27.98 40 29 40 C29 39.01 29 38.02 29 37 C29.99 37 30.98 37 32 37 C32 34.03 32 31.06 32 28 C31.01 28 30.02 28 29 28 C29 27.01 29 26.02 29 25 C27.02 25 25.04 25 23 25 C23 25.99 23 26.98 23 28 C22.34 28 21.68 28 21 28 C21 25.36 21 22.72 21 20 C21.66 20 22.32 20 23 20 C23 20.66 23 21.32 23 22 C24.98 22 26.96 22 29 22 C29 20.35 29 18.7 29 17 C28.01 17 27.02 17 26 17 C26 16.01 26 15.02 26 14 C25.01 14 24.02 14 23 14 C23 13.01 23 12.02 23 11 C15.41 11 7.82 11 0 11 C0 11.99 0 12.98 0 14 C-0.66 14 -1.32 14 -2 14 C-2 14.66 -2 15.32 -2 16 C0.64 16.33 3.28 16.66 6 17 C6 17.66 6 18.32 6 19 C2.37 19 -1.26 19 -5 19 C-5 16.36 -5 13.72 -5 11 C-5.99 11 -6.98 11 -8 11 C-8 9.02 -8 7.04 -8 5 C-7.01 5 -6.02 5 -5 5 C-5 4.01 -5 3.02 -5 2 C-3.35 2 -1.7 2 0 2 C0 1.34 0 0.68 0 0 Z " fill="#090909" transform="translate(108,71)"/>
<path d="M0 0 C1.98 0 3.96 0 6 0 C6 0.99 6 1.98 6 3 C6.99 3 7.98 3 9 3 C9 5.97 9 8.94 9 12 C8.01 12 7.02 12 6 12 C6 12.99 6 13.98 6 15 C5.01 15 4.02 15 3 15 C3 16.65 3 18.3 3 20 C2.01 20 1.02 20 0 20 C0 21.98 0 23.96 0 26 C-0.66 26 -1.32 26 -2 26 C-2 27.98 -2 29.96 -2 32 C-8.93 32 -15.86 32 -23 32 C-23 29.03 -23 26.06 -23 23 C-23.66 23 -24.32 23 -25 23 C-25 22.01 -25 21.02 -25 20 C-25.969375 20.020625 -26.93875 20.04125 -27.9375 20.0625 C-31 20 -31 20 -32 19 C-34.85877909 18.76298761 -37.69883297 18.57780818 -40.5625 18.4375 C-41.36880859 18.39431641 -42.17511719 18.35113281 -43.00585938 18.30664062 C-45.00368805 18.20024738 -47.0018207 18.09959112 -49 18 C-48.6875 16.125 -48.6875 16.125 -48 14 C-44.2632157 11.50881047 -42.25548181 11.7934774 -37.8125 11.875 C-36.54019531 11.89304687 -35.26789063 11.91109375 -33.95703125 11.9296875 C-32.49330078 11.96449219 -32.49330078 11.96449219 -31 12 C-31 11.01 -31 10.02 -31 9 C-27.37 9 -23.74 9 -20 9 C-20 8.01 -20 7.02 -20 6 C-19.01 6 -18.02 6 -17 6 C-17 5.01 -17 4.02 -17 3 C-16.01 3 -15.02 3 -14 3 C-14 3.99 -14 4.98 -14 6 C-11.03 6 -8.06 6 -5 6 C-5 7.98 -5 9.96 -5 12 C-5.99 12 -6.98 12 -8 12 C-8 12.99 -8 13.98 -8 15 C-15.59 15 -23.18 15 -31 15 C-31 15.66 -31 16.32 -31 17 C-28.03 17 -25.06 17 -22 17 C-22 17.99 -22 18.98 -22 20 C-21.34 20 -20.68 20 -20 20 C-20 19.01 -20 18.02 -20 17 C-16.04 17 -12.08 17 -8 17 C-8 17.99 -8 18.98 -8 20 C-7.01 20 -6.02 20 -5 20 C-5 18.02 -5 16.04 -5 14 C-4.01 14 -3.02 14 -2 14 C-2 13.34 -2 12.68 -2 12 C-1.34 12 -0.68 12 0 12 C0 10.02 0 8.04 0 6 C-0.66 6 -1.32 6 -2 6 C-2 5.01 -2 4.02 -2 3 C-1.34 3 -0.68 3 0 3 C0 2.01 0 1.02 0 0 Z " fill="#97A494" transform="translate(131,96)"/>
<path d="M0 0 C3.23509936 2.74493279 4.91776169 4.51738984 5.42578125 8.84375 C5.40902344 9.9678125 5.39226562 11.091875 5.375 12.25 C5.37113281 13.3740625 5.36726563 14.498125 5.36328125 15.65625 C5.07894131 18.58088934 4.58383407 20.27707449 3.0625 22.75 C2.4025 22.75 1.7425 22.75 1.0625 22.75 C0.7325 24.07 0.4025 25.39 0.0625 26.75 C-0.5975 26.75 -1.2575 26.75 -1.9375 26.75 C-1.9375 27.41 -1.9375 28.07 -1.9375 28.75 C-6.91979776 30.66626837 -11.66434667 31.3047115 -16.9375 31.75 C-16.9375 31.09 -16.9375 30.43 -16.9375 29.75 C-17.535625 29.481875 -18.13375 29.21375 -18.75 28.9375 C-22.24838537 27.03837651 -23.67095454 25.54963639 -24.9375 21.75 C-25.47469852 15.74783965 -25.42764933 10.86888568 -21.9375 5.75 C-16.03589201 -1.1029601 -8.78707359 -3.73918025 0 0 Z " fill="#ED13E9" transform="translate(183.9375,15.25)"/>
<path d="M0 0 C1.32 0 2.64 0 4 0 C6.08351615 3.58727128 6.80141379 7.20694042 7.625 11.25 C7.88539062 12.51328125 8.14578125 13.7765625 8.4140625 15.078125 C8.60742188 16.04234375 8.80078125 17.0065625 9 18 C11.21682402 12.04901126 13.36307418 6.13847182 15 0 C16.65 0 18.3 0 20 0 C22.4455624 3.93187403 22.82608248 8.19624574 23.5 12.6875 C23.75468268 14.3036745 24.0111741 15.91956507 24.26953125 17.53515625 C24.39279785 18.30617676 24.51606445 19.07719727 24.64306641 19.87158203 C25.27194928 23.62165106 26.11035239 27.30454068 27 31 C25.35 31.33 23.7 31.66 22 32 C18.68341387 27.0251208 17.61520539 20.96431647 18 15 C17.34 15 16.68 15 16 15 C16.05220703 16.07507813 16.05220703 16.07507813 16.10546875 17.171875 C15.99210681 20.21165434 15.38721968 22.41240021 14.3125 25.25 C13.99925781 26.12140625 13.68601562 26.9928125 13.36328125 27.890625 C12 30 12 30 9.35546875 30.796875 C8.18951172 30.89742187 8.18951172 30.89742187 7 31 C4.1009238 26.78316189 3.08656644 22.93133998 2 18 C-0.04301154 22.52381127 -1.00956295 27.16371695 -2 32 C-3.65 32 -5.3 32 -7 32 C-7.33165234 24.77734902 -6.48242513 18.47056174 -4.625 11.5 C-4.40328125 10.60796875 -4.1815625 9.7159375 -3.953125 8.796875 C-2.27264031 2.27264031 -2.27264031 2.27264031 0 0 Z " fill="#F00FEC" transform="translate(101,14)"/>
<path d="M0 0 C3.16015625 0.3828125 3.16015625 0.3828125 5.1015625 2.578125 C5.63652344 3.54492188 6.17148438 4.51171875 6.72265625 5.5078125 C10.60584184 12.16470208 14.65709256 16.87974881 20.16015625 22.3828125 C20.49015625 15.1228125 20.82015625 7.8628125 21.16015625 0.3828125 C22.48015625 0.3828125 23.80015625 0.3828125 25.16015625 0.3828125 C27.69652498 6.20743793 27.42145617 11.84392991 27.34765625 18.0703125 C27.34701172 19.11509766 27.34636719 20.15988281 27.34570312 21.23632812 C27.30093996 28.96046138 27.30093996 28.96046138 26.16015625 32.3828125 C23.91015625 32.6953125 23.91015625 32.6953125 21.16015625 32.3828125 C19.16015625 30.1953125 19.16015625 30.1953125 17.16015625 27.3828125 C16.41765625 26.6403125 15.67515625 25.8978125 14.91015625 25.1328125 C11.14930044 21.37195669 7.66827853 17.37841579 4.16015625 13.3828125 C4.09957031 14.33542969 4.03898438 15.28804687 3.9765625 16.26953125 C3.89277344 17.52378906 3.80898437 18.77804688 3.72265625 20.0703125 C3.64144531 21.31167969 3.56023437 22.55304687 3.4765625 23.83203125 C3.21524308 26.76461587 2.81217246 29.51722867 2.16015625 32.3828125 C0.51015625 32.3828125 -1.13984375 32.3828125 -2.83984375 32.3828125 C-3.60012097 28.32586153 -3.96804702 24.48887145 -3.97265625 20.36328125 C-3.97394531 19.25919922 -3.97523438 18.15511719 -3.9765625 17.01757812 C-3.97269531 15.87998047 -3.96882812 14.74238281 -3.96484375 13.5703125 C-3.96871094 12.41337891 -3.97257813 11.25644531 -3.9765625 10.06445312 C-3.97462891 8.41799805 -3.97462891 8.41799805 -3.97265625 6.73828125 C-3.97152832 5.73434326 -3.97040039 4.73040527 -3.96923828 3.69604492 C-3.77817698 0.28037351 -3.44073102 0.46381243 0 0 Z " fill="#ED13E9" transform="translate(195.83984375,13.6171875)"/>
<path d="M0 0 C0.495 0.33 0.99 0.66 1.5 1 C1.5 2.32 1.5 3.64 1.5 5 C0.58476563 5.02578125 -0.33046875 5.0515625 -1.2734375 5.078125 C-3.05621094 5.16320312 -3.05621094 5.16320312 -4.875 5.25 C-6.05835937 5.29640625 -7.24171875 5.3428125 -8.4609375 5.390625 C-11.61291753 5.65648799 -11.61291753 5.65648799 -12.9140625 8.046875 C-13.10742188 8.69140625 -13.30078125 9.3359375 -13.5 10 C-12.74074219 10.06058594 -11.98148438 10.12117188 -11.19921875 10.18359375 C-10.20535156 10.26738281 -9.21148437 10.35117187 -8.1875 10.4375 C-7.20136719 10.51871094 -6.21523438 10.59992187 -5.19921875 10.68359375 C-1.23723158 11.14802351 0.13824327 11.56790169 2.75 14.6875 C4.5 18 4.5 18 4.625 21.0625 C3.05198299 25.16982219 1.09614282 26.48270003 -2.5 29 C-7.53969017 30.67989672 -13.47705529 31.05745594 -18.5546875 29.28125 C-20.1875 28.3125 -20.1875 28.3125 -22.5 26 C-22.875 23.25 -22.875 23.25 -22.5 21 C-19.12537285 21.54723683 -17.41765 22.0549 -14.5 24 C-12.2716121 24.06333337 -12.2716121 24.06333337 -9.9375 23.6875 C-9.15246094 23.58824219 -8.36742187 23.48898438 -7.55859375 23.38671875 C-5.44597369 23.08731629 -5.44597369 23.08731629 -3.5 22 C-2.84444881 19.47266765 -2.84444881 19.47266765 -2.5 17 C-3.23605469 16.95101562 -3.97210937 16.90203125 -4.73046875 16.8515625 C-5.70628906 16.77679688 -6.68210937 16.70203125 -7.6875 16.625 C-8.65042969 16.55539063 -9.61335938 16.48578125 -10.60546875 16.4140625 C-13.54627812 15.99337992 -15.84014569 15.31339165 -18.5 14 C-19.94430855 11.11138291 -19.87688506 9.20352299 -19.5 6 C-14.26969417 -0.39259601 -7.96534491 -3.18613797 0 0 Z " fill="#ED12E8" transform="translate(34.5,16)"/>
<path d="M0 0 C6.09364446 -0.08492884 10.64312926 1.15326598 15.1171875 5.46875 C16.3046875 8.40625 16.3046875 8.40625 16.1171875 11.46875 C14.6796875 14.84375 14.6796875 14.84375 13.1171875 17.46875 C12.4571875 17.46875 11.7971875 17.46875 11.1171875 17.46875 C11.1171875 18.12875 11.1171875 18.78875 11.1171875 19.46875 C7.90267481 21.07600635 4.68106214 20.52623185 1.1171875 20.46875 C1.1171875 24.42875 1.1171875 28.38875 1.1171875 32.46875 C-0.5328125 32.46875 -2.1828125 32.46875 -3.8828125 32.46875 C-3.93228116 28.39367428 -3.96856439 24.31871503 -3.99267578 20.2434082 C-4.0027282 18.85730952 -4.0163722 17.47123201 -4.03369141 16.08520508 C-4.05797202 14.0920525 -4.06823281 12.09874467 -4.078125 10.10546875 C-4.08859863 8.90623779 -4.09907227 7.70700684 -4.10986328 6.47143555 C-3.86262726 3.20180563 -3.50023004 0.87142657 0 0 Z " fill="#E917E5" transform="translate(44.8828125,12.53125)"/>
<path d="M0 0 C0.99 0.33 1.98 0.66 3 1 C4.0625 3.5546875 4.0625 3.5546875 5 6.875 C5.33386719 8.04804688 5.66773437 9.22109375 6.01171875 10.4296875 C6.50091797 12.19699219 6.50091797 12.19699219 7 14 C7.31582031 15.03382812 7.63164063 16.06765625 7.95703125 17.1328125 C8.23933594 18.07898438 8.52164063 19.02515625 8.8125 20 C9.06644531 20.845625 9.32039063 21.69125 9.58203125 22.5625 C10.05530613 25.32253297 9.70628582 27.30938734 9 30 C6.24542282 29.62005832 5.17979426 29.1926367 3.25 27.125 C2 25 2 25 2 22 C-2.95 22.495 -2.95 22.495 -8 23 C-8.33 24.32 -8.66 25.64 -9 27 C-9.66 27 -10.32 27 -11 27 C-11.33 27.99 -11.66 28.98 -12 30 C-13.32 30 -14.64 30 -16 30 C-15.14285714 21.42857143 -15.14285714 21.42857143 -13 18 C-12.34 18 -11.68 18 -11 18 C-10.814375 17.21625 -10.62875 16.4325 -10.4375 15.625 C-8.13261781 9.81268839 -4.42973353 4.42973353 0 0 Z " fill="#EB12E7" transform="translate(80,15)"/>
<path d="M0 0 C0.66 0 1.32 0 2 0 C2.19477739 1.62414378 2.38059458 3.24936423 2.5625 4.875 C2.66691406 5.77992187 2.77132812 6.68484375 2.87890625 7.6171875 C3 10 3 10 2 12 C2.66 12 3.32 12 4 12 C4 12.66 4 13.32 4 14 C3.34 14 2.68 14 2 14 C2 14.66 2 15.32 2 16 C3.65 16.33 5.3 16.66 7 17 C7.33 16.01 7.66 15.02 8 14 C7.01 14 6.02 14 5 14 C5 13.01 5 12.02 5 11 C9.95 11 14.9 11 20 11 C20 12.32 20 13.64 20 15 C19.01 15 18.02 15 17 15 C17 15.66 17 16.32 17 17 C16.01 17 15.02 17 14 17 C14 17.99 14 18.98 14 20 C13.01 20 12.02 20 11 20 C11 19.34 11 18.68 11 18 C10.34 18 9.68 18 9 18 C8.67 18.99 8.34 19.98 8 21 C7.34 21 6.68 21 6 21 C6 22.65 6 24.3 6 26 C5.01 26.33 4.02 26.66 3 27 C3 28.32 3 29.64 3 31 C3.99 31 4.98 31 6 31 C6 32.98 6 34.96 6 37 C5.67 37 5.34 37 5 37 C5 35.35 5 33.7 5 32 C4.01 32 3.02 32 2 32 C2 30.02 2 28.04 2 26 C1.34 26 0.68 26 0 26 C0 24.02 0 22.04 0 20 C-0.99 20 -1.98 20 -3 20 C-3 19.01 -3 18.02 -3 17 C-3.99 17 -4.98 17 -6 17 C-6 17.99 -6 18.98 -6 20 C-6.99 20 -7.98 20 -9 20 C-9 20.99 -9 21.98 -9 23 C-9.99 23 -10.98 23 -12 23 C-12 22.01 -12 21.02 -12 20 C-12.99 20 -13.98 20 -15 20 C-15 19.01 -15 18.02 -15 17 C-14.01 17 -13.02 17 -12 17 C-12 16.34 -12 15.68 -12 15 C-11.01 15 -10.02 15 -9 15 C-9 14.01 -9 13.02 -9 12 C-8.01 12 -7.02 12 -6 12 C-6 10.02 -6 8.04 -6 6 C-5.01 6 -4.02 6 -3 6 C-3 5.01 -3 4.02 -3 3 C-2.01 3 -1.02 3 0 3 C0 2.01 0 1.02 0 0 Z " fill="#0B0B0C" transform="translate(106,119)"/>
<path d="M0 0 C1.98 0 3.96 0 6 0 C6 0.99 6 1.98 6 3 C6.99 3 7.98 3 9 3 C9 5.97 9 8.94 9 12 C8.01 12 7.02 12 6 12 C6 12.99 6 13.98 6 15 C5.01 15 4.02 15 3 15 C3 16.65 3 18.3 3 20 C2.01 20 1.02 20 0 20 C0 21.98 0 23.96 0 26 C-0.66 26 -1.32 26 -2 26 C-2 27.98 -2 29.96 -2 32 C-8.93 32 -15.86 32 -23 32 C-23 29.03 -23 26.06 -23 23 C-23.66 23 -24.32 23 -25 23 C-25 22.01 -25 21.02 -25 20 C-25.99 20 -26.98 20 -28 20 C-28 19.34 -28 18.68 -28 18 C-26.35 18 -24.7 18 -23 18 C-22.67 18.99 -22.34 19.98 -22 21 C-21.34 21 -20.68 21 -20 21 C-20 23.64 -20 26.28 -20 29 C-16.04 29 -12.08 29 -8 29 C-8 26.03 -8 23.06 -8 20 C-7.01 20 -6.02 20 -5 20 C-5 18.02 -5 16.04 -5 14 C-4.01 14 -3.02 14 -2 14 C-2 13.34 -2 12.68 -2 12 C-1.34 12 -0.68 12 0 12 C0 10.02 0 8.04 0 6 C-0.66 6 -1.32 6 -2 6 C-2 5.01 -2 4.02 -2 3 C-1.34 3 -0.68 3 0 3 C0 2.01 0 1.02 0 0 Z " fill="#EFEEEE" transform="translate(131,96)"/>
<path d="M0 0 C1.17755859 -0.00773437 1.17755859 -0.00773437 2.37890625 -0.015625 C4.4375 0.25 4.4375 0.25 6.4375 2.25 C7.05311454 7.21489126 7.05241588 11.8245132 5.0625 16.4375 C4.52625 17.035625 3.99 17.63375 3.4375 18.25 C2.7775 18.25 2.1175 18.25 1.4375 18.25 C1.4375 18.91 1.4375 19.57 1.4375 20.25 C-0.16582791 20.33121924 -1.77034026 20.38929134 -3.375 20.4375 C-4.71498047 20.48970703 -4.71498047 20.48970703 -6.08203125 20.54296875 C-8.5625 20.25 -8.5625 20.25 -10.359375 19.0078125 C-12.61729459 15.70890401 -12.16273439 12.07323208 -11.5625 8.25 C-8.75215308 2.9200317 -6.19161648 -0.04080143 0 0 Z " fill="#4CA232" transform="translate(176.5625,19.75)"/>
<path d="M0 0 C4.10410755 -0.05796132 8.20811016 -0.09358313 12.3125 -0.125 C13.47974609 -0.14175781 14.64699219 -0.15851562 15.84960938 -0.17578125 C16.96787109 -0.18222656 18.08613281 -0.18867188 19.23828125 -0.1953125 C20.26993408 -0.20578613 21.30158691 -0.21625977 22.36450195 -0.22705078 C25 0 25 0 28 2 C27.67 2.99 27.34 3.98 27 5 C23.04 5 19.08 5 15 5 C15.24556641 6.45599609 15.24556641 6.45599609 15.49609375 7.94140625 C16.11628841 12.28276888 16.11126417 16.55997771 16.0625 20.9375 C16.05798828 21.71673828 16.05347656 22.49597656 16.04882812 23.29882812 C16.03716908 25.19925268 16.01923877 27.09963706 16 29 C14.02 29.33 12.04 29.66 10 30 C10 21.75 10 13.5 10 5 C7.36 5 4.72 5 2 5 C1.01 4.67 0.02 4.34 -1 4 C-0.67 2.68 -0.34 1.36 0 0 Z " fill="#F708F5" transform="translate(130,15)"/>
<path d="M0 0 C0.99 0 1.98 0 3 0 C3 0.66 3 1.32 3 2 C3.99 2 4.98 2 6 2 C6 2.99 6 3.98 6 5 C6.99 5 7.98 5 9 5 C9 6.65 9 8.3 9 10 C8.01 10.495 8.01 10.495 7 11 C6.01 10.34 5.02 9.68 4 9 C2.68 9.33 1.36 9.66 0 10 C-0.33 15.28 -0.66 20.56 -1 26 C-1.99 26 -2.98 26 -4 26 C-4.144375 26.639375 -4.28875 27.27875 -4.4375 27.9375 C-5 30 -5 30 -6 31 C-9.6691577 31.14310287 -13.32715441 31.04221662 -17 31 C-17 27.04 -17 23.08 -17 19 C-13.04 19 -9.08 19 -5 19 C-5 18.01 -5 17.02 -5 16 C-4.34 16 -3.68 16 -3 16 C-3 13.36 -3 10.72 -3 8 C-2.01 8 -1.02 8 0 8 C0 5.36 0 2.72 0 0 Z " fill="#83987D" transform="translate(131,134)"/>
<path d="M0 0 C7.59 0 15.18 0 23 0 C23 0.99 23 1.98 23 3 C23.99 3 24.98 3 26 3 C26 3.99 26 4.98 26 6 C26.99 6 27.98 6 29 6 C29 7.65 29 9.3 29 11 C27.02 11 25.04 11 23 11 C23 10.01 23 9.02 23 8 C22.34 8 21.68 8 21 8 C21 7.34 21 6.68 21 6 C17.04 6 13.08 6 9 6 C9 6.66 9 7.32 9 8 C8.01 8 7.02 8 6 8 C6 7.34 6 6.68 6 6 C5.05125 6.020625 4.1025 6.04125 3.125 6.0625 C0 6 0 6 -2 5 C-2 4.34 -2 3.68 -2 3 C-1.34 3 -0.68 3 0 3 C0 2.01 0 1.02 0 0 Z " fill="#EFF0EF" transform="translate(108,82)"/>
<path d="M0 0 C0.99 0 1.98 0 3 0 C3 0.99 3 1.98 3 3 C5.97 3 8.94 3 12 3 C12 4.98 12 6.96 12 9 C11.01 9 10.02 9 9 9 C9 9.66 9 10.32 9 11 C-0.57 11 -10.14 11 -20 11 C-20 10.34 -20 9.68 -20 9 C-18.02 9 -16.04 9 -14 9 C-14 8.01 -14 7.02 -14 6 C-10.37 6 -6.74 6 -3 6 C-3 5.01 -3 4.02 -3 3 C-2.01 3 -1.02 3 0 3 C0 2.01 0 1.02 0 0 Z " fill="#F4F5F5" transform="translate(114,99)"/>
<path d="M0 0 C5.28306445 0.06762322 9.12574163 1.69834192 12.9375 5.375 C14.125 8.3125 14.125 8.3125 13.9375 11.375 C12.5 14.75 12.5 14.75 10.9375 17.375 C9.9475 17.375 8.9575 17.375 7.9375 17.375 C6.7797494 13.90174819 6.86883348 11.01432552 6.9375 7.375 C4.6275 6.715 2.3175 6.055 -0.0625 5.375 C-0.3925 8.015 -0.7225 10.655 -1.0625 13.375 C-1.3925 13.375 -1.7225 13.375 -2.0625 13.375 C-2.18625 14.674375 -2.31 15.97375 -2.4375 17.3125 C-2.6484375 19.52734375 -2.6484375 19.52734375 -3.0625 21.375 C-3.7225 21.705 -4.3825 22.035 -5.0625 22.375 C-5.09137814 18.89585059 -5.10925687 15.41673169 -5.125 11.9375 C-5.13337891 10.94427734 -5.14175781 9.95105469 -5.15039062 8.92773438 C-5.15361328 7.98349609 -5.15683594 7.03925781 -5.16015625 6.06640625 C-5.16539307 5.19185791 -5.17062988 4.31730957 -5.17602539 3.41625977 C-4.97505537 -0.19731086 -3.22560146 0.14385187 0 0 Z " fill="#F10DEE" transform="translate(47.0625,12.625)"/>
<path d="M0 0 C0.99 0 1.98 0 3 0 C3 0.66 3 1.32 3 2 C3.99 2 4.98 2 6 2 C6 3.98 6 5.96 6 8 C5.01 8 4.02 8 3 8 C3 8.99 3 9.98 3 11 C2.01 11 1.02 11 0 11 C0 11.99 0 12.98 0 14 C0.99 14 1.98 14 3 14 C3 14.99 3 15.98 3 17 C2.34 17 1.68 17 1 17 C0.67 17.99 0.34 18.98 0 20 C-1.98 20 -3.96 20 -6 20 C-6 20.66 -6 21.32 -6 22 C-6.99 22 -7.98 22 -9 22 C-9 21.01 -9 20.02 -9 19 C-8.01 19 -7.02 19 -6 19 C-6 18.01 -6 17.02 -6 16 C-4.35 16 -2.7 16 -1 16 C-1 15.34 -1 14.68 -1 14 C-2.65 14 -4.3 14 -6 14 C-6 13.01 -6 12.02 -6 11 C-5.01 11 -4.02 11 -3 11 C-3 10.01 -3 9.02 -3 8 C-1.35 8 0.3 8 2 8 C2 7.01 2 6.02 2 5 C-0.64 5 -3.28 5 -6 5 C-6 4.01 -6 3.02 -6 2 C-4.02 2 -2.04 2 0 2 C0 1.34 0 0.68 0 0 Z " fill="#889883" transform="translate(149,74)"/>
<path d="M0 0 C1.51400391 0.01740234 1.51400391 0.01740234 3.05859375 0.03515625 C4.07050781 0.04417969 5.08242187 0.05320312 6.125 0.0625 C7.29869141 0.07990234 7.29869141 0.07990234 8.49609375 0.09765625 C8.49609375 3.06765625 8.49609375 6.03765625 8.49609375 9.09765625 C4.53609375 9.09765625 0.57609375 9.09765625 -3.50390625 9.09765625 C-3.6015625 2.9453125 -3.6015625 2.9453125 -3.50390625 1.09765625 C-2.50390625 0.09765625 -2.50390625 0.09765625 0 0 Z " fill="#4D4D4D" transform="translate(114.50390625,115.90234375)"/>
<path d="M0 0 C3.63 0 7.26 0 11 0 C11 2.64 11 5.28 11 8 C7.37 8 3.74 8 0 8 C0 5.36 0 2.72 0 0 Z " fill="#F4B3CB" transform="translate(103,91)"/>
<path d="M0 0 C3.63 0 7.26 0 11 0 C11 2.64 11 5.28 11 8 C7.37 8 3.74 8 0 8 C0 5.36 0 2.72 0 0 Z " fill="#F8F120" transform="translate(117,91)"/>
<path d="M0 0 C0.99 0 1.98 0 3 0 C3 0.99 3 1.98 3 3 C3.99 3 4.98 3 6 3 C6 3.99 6 4.98 6 6 C5.01 6 4.02 6 3 6 C3 6.99 3 7.98 3 9 C-0.63 9 -4.26 9 -8 9 C-7.67 6.69 -7.34 4.38 -7 2 C-4.69 2 -2.38 2 0 2 C0 1.34 0 0.68 0 0 Z " fill="#799F6F" transform="translate(88,136)"/>
<path d="M0 0 C1.258125 -0.04125 2.51625 -0.0825 3.8125 -0.125 C4.52019531 -0.14820313 5.22789062 -0.17140625 5.95703125 -0.1953125 C8 0 8 0 11 2 C11.1875 5.625 11.1875 5.625 11 9 C7.37 9 3.74 9 0 9 C0 8.01 0 7.02 0 6 C0.99 6 1.98 6 3 6 C3 5.01 3 4.02 3 3 C2.01 3 1.02 3 0 3 C0 2.01 0 1.02 0 0 Z " fill="#8EA18D" transform="translate(143,142)"/>
<path d="M0 0 C4.95 0 9.9 0 15 0 C15 1.32 15 2.64 15 4 C14.01 4 13.02 4 12 4 C12 4.66 12 5.32 12 6 C11.01 6 10.02 6 9 6 C9 6.99 9 7.98 9 9 C8.01 9 7.02 9 6 9 C6 8.01 6 7.02 6 6 C5.01 6 4.02 6 3 6 C3 5.01 3 4.02 3 3 C2.01 3 1.02 3 0 3 C0 2.01 0 1.02 0 0 Z " fill="#D5D5D5" transform="translate(111,130)"/>
<path d="M0 0 C0.66 0 1.32 0 2 0 C2 1.32 2 2.64 2 4 C0.68 4 -0.64 4 -2 4 C-1.67 6.31 -1.34 8.62 -1 11 C-1.66 11 -2.32 11 -3 11 C-3 10.01 -3 9.02 -3 8 C-6.96 8 -10.92 8 -15 8 C-15 8.99 -15 9.98 -15 11 C-15.66 11 -16.32 11 -17 11 C-17 10.01 -17 9.02 -17 8 C-19.97 8 -22.94 8 -26 8 C-26 7.34 -26 6.68 -26 6 C-18.41 6 -10.82 6 -3 6 C-3 5.01 -3 4.02 -3 3 C-2.01 3 -1.02 3 0 3 C0 2.01 0 1.02 0 0 Z " fill="#070505" transform="translate(126,105)"/>
<path d="M0 0 C3.96 0 7.92 0 12 0 C12 1.65 12 3.3 12 5 C11.01 5 10.02 5 9 5 C9 5.99 9 6.98 9 8 C8.01 8 7.02 8 6 8 C6 6.02 6 4.04 6 2 C5.01 2 4.02 2 3 2 C3 3.98 3 5.96 3 8 C2.01 8 1.02 8 0 8 C0 5.36 0 2.72 0 0 Z " fill="#F4F4F4" transform="translate(114,154)"/>
<path d="M0 0 C6.875 0.875 6.875 0.875 8 2 C8.3125 4.375 8.3125 4.375 8 7 C6.25 8.8125 6.25 8.8125 4 10 C2.68 10 1.36 10 0 10 C0 6.7 0 3.4 0 0 Z " fill="#4F9E34" transform="translate(47,18)"/>
<path d="M0 0 C0.33 0 0.66 0 1 0 C1 1.98 1 3.96 1 6 C0.01 6 -0.98 6 -2 6 C-2 6.99 -2 7.98 -2 9 C-2.99 9 -3.98 9 -5 9 C-5 10.98 -5 12.96 -5 15 C-5.99 15 -6.98 15 -8 15 C-8 15.99 -8 16.98 -8 18 C-8.99 18 -9.98 18 -11 18 C-11 18.66 -11 19.32 -11 20 C-11.99 20 -12.98 20 -14 20 C-13.67 18.68 -13.34 17.36 -13 16 C-12.34 16 -11.68 16 -11 16 C-11 15.34 -11 14.68 -11 14 C-10.01 14 -9.02 14 -8 14 C-8 12.35 -8 10.7 -8 9 C-7.34 9 -6.68 9 -6 9 C-5.62875 8.071875 -5.62875 8.071875 -5.25 7.125 C-3.79371361 4.64931313 -2.62187494 4.04874998 0 3 C0 2.01 0 1.02 0 0 Z " fill="#80907E" transform="translate(105,116)"/>
<path d="M0 0 C0.33 0.99 0.66 1.98 1 3 C1.66 3 2.32 3 3 3 C3.33 2.34 3.66 1.68 4 1 C5.65 1.33 7.3 1.66 9 2 C9 2.66 9 3.32 9 4 C8.34 4 7.68 4 7 4 C7 5.98 7 7.96 7 10 C5.35 10 3.7 10 2 10 C1.67 8.68 1.34 7.36 1 6 C0.34 6 -0.32 6 -1 6 C-1.33 5.01 -1.66 4.02 -2 3 C-1.34 2.01 -0.68 1.02 0 0 Z " fill="#E71CE0" transform="translate(74,22)"/>
<path d="M0 0 C1.65 0.33 3.3 0.66 5 1 C5 1.66 5 2.32 5 3 C6.65 3 8.3 3 10 3 C10 3.33 10 3.66 10 4 C6.37 4 2.74 4 -1 4 C-1 4.99 -1 5.98 -1 7 C-2.98 7 -4.96 7 -7 7 C-7 5.68 -7 4.36 -7 3 C-5.02 3 -3.04 3 -1 3 C-0.67 2.01 -0.34 1.02 0 0 Z " fill="#87746B" transform="translate(101,101)"/>
<path d="M0 0 C3.63 0 7.26 0 11 0 C11 0.99 11 1.98 11 3 C10.01 3 9.02 3 8 3 C8 3.66 8 4.32 8 5 C6.35 5 4.7 5 3 5 C3 4.34 3 3.68 3 3 C2.01 3 1.02 3 0 3 C0 2.01 0 1.02 0 0 Z " fill="#180D0F" transform="translate(103,99)"/>
<path d="M0 0 C4.95 0 9.9 0 15 0 C15 1.32 15 2.64 15 4 C14.01 4 13.02 4 12 4 C12 4.66 12 5.32 12 6 C11.01 6 10.02 6 9 6 C9 5.01 9 4.02 9 3 C9.99 3 10.98 3 12 3 C12 2.34 12 1.68 12 1 C9.03 1 6.06 1 3 1 C3 1.66 3 2.32 3 3 C2.01 3 1.02 3 0 3 C0 2.01 0 1.02 0 0 Z " fill="#818181" transform="translate(111,130)"/>
<path d="M0 0 C2.64 0.66 5.28 1.32 8 2 C7.67 3.65 7.34 5.3 7 7 C4.69 7 2.38 7 0 7 C0 4.69 0 2.38 0 0 Z " fill="#0A0A0A" transform="translate(112,117)"/>
<path d="M0 0 C0.99 0 1.98 0 3 0 C3 1.65 3 3.3 3 5 C3.99 5 4.98 5 6 5 C6 6.98 6 8.96 6 11 C5.01 10.67 4.02 10.34 3 10 C2.67 9.01 2.34 8.02 2 7 C1.34 6.67 0.68 6.34 0 6 C0 4.02 0 2.04 0 0 Z " fill="#859B7F" transform="translate(108,151)"/>
<path d="M0 0 C1.98 0 3.96 0 6 0 C6 0.99 6 1.98 6 3 C5.01 3 4.02 3 3 3 C3 3.99 3 4.98 3 6 C1.02 6 -0.96 6 -3 6 C-3 5.01 -3 4.02 -3 3 C-2.01 3 -1.02 3 0 3 C0 2.01 0 1.02 0 0 Z " fill="#D7D9D9" transform="translate(88,139)"/>
<path d="M0 0 C3.96 0 7.92 0 12 0 C12 0.99 12 1.98 12 3 C8.37 3 4.74 3 1 3 C0.67 2.01 0.34 1.02 0 0 Z " fill="#DCDCDC" transform="translate(111,113)"/>
<path d="M0 0 C1.98 0 3.96 0 6 0 C6 0.99 6 1.98 6 3 C6.66 3 7.32 3 8 3 C8 3.99 8 4.98 8 6 C6.35 6 4.7 6 3 6 C3 5.01 3 4.02 3 3 C2.01 3 1.02 3 0 3 C0 2.01 0 1.02 0 0 Z " fill="#DCDCDC" transform="translate(143,142)"/>
<path d="M0 0 C2.64 0 5.28 0 8 0 C8 2.31 8 4.62 8 7 C5.69 6.67 3.38 6.34 1 6 C1 5.67 1 5.34 1 5 C2.65 5 4.3 5 6 5 C6 4.01 6 3.02 6 2 C3.69 2 1.38 2 -1 2 C-0.67 1.34 -0.34 0.68 0 0 Z " fill="#040404" transform="translate(114,117)"/>
<path d="M0 0 C3.63 0 7.26 0 11 0 C11 0.99 11 1.98 11 3 C7.37 3 3.74 3 0 3 C0 2.01 0 1.02 0 0 Z " fill="#1C180A" transform="translate(117,99)"/>
<path d="M0 0 C0.66 0 1.32 0 2 0 C2 2.64 2 5.28 2 8 C1.34 8 0.68 8 0 8 C0 6.35 0 4.7 0 3 C-3.96 3 -7.92 3 -12 3 C-12 2.67 -12 2.34 -12 2 C-8.04 2 -4.08 2 0 2 C0 1.34 0 0.68 0 0 Z " fill="#999D99" transform="translate(126,151)"/>
<path d="M0 0 C2.97 0 5.94 0 9 0 C8.67 1.32 8.34 2.64 8 4 C5.36 3.67 2.72 3.34 0 3 C0 2.01 0 1.02 0 0 Z " fill="#8BA086" transform="translate(85,145)"/>
<path d="M0 0 C0.33 0 0.66 0 1 0 C1 3.3 1 6.6 1 10 C1.99 10 2.98 10 4 10 C4.66 9.34 5.32 8.68 6 8 C6 9.32 6 10.64 6 12 C4.02 12.33 2.04 12.66 0 13 C0 8.71 0 4.42 0 0 Z " fill="#C43AC5" transform="translate(140,32)"/>
<path d="M0 0 C0 0.33 0 0.66 0 1 C-1.98 1.66 -3.96 2.32 -6 3 C-6 3.99 -6 4.98 -6 6 C-6.99 6.33 -7.98 6.66 -9 7 C-9 6.34 -9 5.68 -9 5 C-10.32 4.34 -11.64 3.68 -13 3 C-12.34 2.67 -11.68 2.34 -11 2 C-10.34 2.33 -9.68 2.66 -9 3 C-9 2.34 -9 1.68 -9 1 C-5.8035914 -0.06546953 -3.34252724 -0.07427838 0 0 Z " fill="#C639BC" transform="translate(176,40)"/>
<path d="M0 0 C0.99 0 1.98 0 3 0 C3 2.64 3 5.28 3 8 C2.01 8 1.02 8 0 8 C0 5.36 0 2.72 0 0 Z " fill="#1D0E12" transform="translate(114,91)"/>
<path d="M0 0 C0.33 0 0.66 0 1 0 C1.66 2.64 2.32 5.28 3 8 C2.01 8 1.02 8 0 8 C0 7.34 0 6.68 0 6 C-0.66 6 -1.32 6 -2 6 C-2 7.65 -2 9.3 -2 11 C-2.33 11 -2.66 11 -3 11 C-3 9.02 -3 7.04 -3 5 C-2.01 5 -1.02 5 0 5 C0 3.35 0 1.7 0 0 Z " fill="#454444" transform="translate(134,111)"/>
<path d="M0 0 C0.66 0 1.32 0 2 0 C2 1.98 2 3.96 2 6 C0.68 6 -0.64 6 -2 6 C-1.49396008 3.83125748 -1.00016187 2.00032373 0 0 Z " fill="#599947" transform="translate(78,26)"/>
<path d="M0 0 C0.99 0 1.98 0 3 0 C3 1.98 3 3.96 3 6 C2.01 6 1.02 6 0 6 C0 4.02 0 2.04 0 0 Z " fill="#1B1B1B" transform="translate(117,156)"/>
<path d="M0 0 C0.99 0 1.98 0 3 0 C3 1.98 3 3.96 3 6 C2.01 6 1.02 6 0 6 C0 4.02 0 2.04 0 0 Z " fill="#8AA189" transform="translate(143,133)"/>
<path d="M0 0 C1.98 0 3.96 0 6 0 C6 0.99 6 1.98 6 3 C4.02 3 2.04 3 0 3 C0 2.01 0 1.02 0 0 Z " fill="#E5E5E5" transform="translate(114,119)"/>
<path d="M0 0 C1.98 0 3.96 0 6 0 C6 0.99 6 1.98 6 3 C4.02 3 2.04 3 0 3 C0 2.01 0 1.02 0 0 Z " fill="#A3AB9D" transform="translate(94,105)"/>
<path d="M0 0 C0.99 0 1.98 0 3 0 C3 0.99 3 1.98 3 3 C0.5 4.6875 0.5 4.6875 -2 6 C-2.33 5.01 -2.66 4.02 -3 3 C-2.01 3 -1.02 3 0 3 C0 2.01 0 1.02 0 0 Z " fill="#90988C" transform="translate(97,139)"/>
</svg>
