<svg id="svg" version="1.1" xmlns="http://www.w3.org/2000/svg" xmlns:xlink="http://www.w3.org/1999/xlink" width="400" height="300" viewBox="0, 0, 400,300"><g id="svgg"><path id="path0" d="M202.835 2.383 C 203.449 33.382,203.958 67.853,203.857 71.593 C 203.789 74.121,203.788 76.441,203.856 76.747 L 203.978 77.304 206.890 77.237 C 218.690 76.967,222.750 76.946,225.055 77.140 C 233.950 77.890,246.479 81.831,251.174 85.356 C 252.604 86.430,252.896 86.486,253.827 85.869 C 254.245 85.592,262.213 77.755,271.534 68.452 L 288.481 51.539 288.556 79.412 C 288.631 107.518,288.754 112.949,289.271 110.935 C 289.475 110.143,291.151 109.269,293.345 108.809 C 293.692 108.737,317.810 95.237,346.942 78.811 L 399.910 48.944 399.956 24.472 L 400.001 0.000 301.395 -0.000 L 202.788 -0.001 202.835 2.383 M160.590 125.152 C 159.837 125.615,158.839 126.291,158.372 126.655 C 156.119 128.410,150.899 135.491,150.899 136.792 C 150.899 137.812,157.165 142.484,162.105 145.148 C 163.833 146.080,163.831 146.081,162.969 144.228 C 160.654 139.252,160.068 131.933,161.596 127.068 C 162.519 124.126,162.486 124.279,162.206 124.295 C 162.071 124.303,161.344 124.689,160.590 125.152 M179.496 124.339 C 179.496 124.371,179.698 124.991,179.945 125.717 C 181.995 131.744,181.874 138.511,179.604 144.863 C 178.837 147.009,178.649 146.831,181.043 146.226 C 184.221 145.424,186.191 144.444,191.420 141.064 C 192.950 140.075,192.962 140.039,192.265 138.450 C 189.710 132.632,187.370 129.317,183.903 126.608 C 182.244 125.313,179.496 123.897,179.496 124.339 M231.810 125.242 C 227.211 127.173,223.365 130.157,221.248 133.436 C 220.332 134.855,220.326 134.716,221.358 136.235 C 224.533 140.913,226.902 143.541,228.669 144.349 C 229.694 144.817,234.152 146.124,234.282 145.993 C 234.356 145.920,233.429 140.672,232.862 137.950 C 232.749 137.405,232.659 135.466,232.663 133.633 C 232.672 129.038,233.038 127.328,234.525 124.922 L 234.921 124.281 234.502 124.284 C 234.271 124.286,233.060 124.717,231.810 125.242 M250.608 126.044 C 251.976 130.865,251.142 141.142,249.019 145.623 C 248.042 147.687,247.966 147.538,249.829 147.211 C 253.073 146.640,258.499 144.455,262.026 142.298 C 262.853 141.792,263.692 141.327,263.889 141.264 C 264.569 141.048,264.268 139.183,263.232 137.193 C 260.948 132.807,259.212 130.994,254.548 128.128 C 251.134 126.029,250.510 125.700,250.608 126.044 M124.730 185.728 C 124.433 185.883,123.462 186.437,122.572 186.959 C 121.682 187.481,113.952 191.732,105.396 196.406 C 96.839 201.080,86.398 206.785,82.194 209.084 C 40.276 232.008,1.340 253.281,0.740 253.587 L -0.000 253.964 -0.000 276.982 L 0.000 300.000 100.450 300.000 C 155.697 300.000,200.906 299.980,200.915 299.955 C 201.237 299.051,202.800 229.465,202.510 228.906 C 202.063 228.042,202.067 227.682,202.531 227.093 C 202.736 226.832,202.878 226.615,202.846 226.612 C 201.897 226.495,200.229 226.437,197.932 226.442 C 189.409 226.461,185.290 226.043,179.389 224.562 C 174.052 223.222,173.134 222.906,162.050 218.575 C 152.209 214.729,144.586 208.779,135.489 197.842 C 133.803 195.814,131.501 193.180,130.375 191.989 C 128.266 189.758,126.721 187.996,126.598 187.680 C 126.511 187.454,125.335 185.429,125.298 185.439 C 125.282 185.443,125.027 185.573,124.730 185.728 " stroke="none" fill="#bbd25b" fill-rule="evenodd"></path><path id="path1" d="M-0.000 132.018 L -0.000 253.964 0.740 253.587 C 1.340 253.281,40.276 232.008,82.194 209.084 C 86.398 206.785,96.839 201.080,105.396 196.406 C 113.952 191.732,121.682 187.478,122.572 186.953 C 123.462 186.427,124.413 185.898,124.685 185.776 C 125.290 185.504,125.291 185.459,124.722 183.799 C 123.341 179.774,122.742 176.773,121.780 169.065 C 120.136 155.895,119.926 149.639,120.000 116.199 C 120.030 103.000,120.028 92.337,119.996 92.503 C 119.927 92.861,119.680 92.897,119.478 92.579 C 119.208 92.154,115.554 89.549,106.385 83.243 C 101.340 79.773,92.801 73.894,87.410 70.179 C 67.286 56.310,39.338 37.046,15.258 20.446 C 6.982 14.740,0.163 10.072,0.105 10.072 C 0.047 10.072,-0.000 64.948,-0.000 132.018 M346.942 78.804 C 317.810 95.235,293.692 108.737,293.345 108.809 C 289.539 109.606,289.002 110.251,289.224 113.762 C 289.305 115.046,289.375 123.365,289.380 132.248 C 289.387 146.459,289.422 148.464,289.667 148.937 C 289.910 149.408,289.937 150.725,289.884 159.495 C 289.813 171.048,290.026 169.479,287.642 175.989 C 284.544 184.447,283.330 187.235,281.029 191.180 C 279.864 193.177,279.769 193.535,280.725 192.327 C 282.474 190.116,282.980 189.810,283.993 190.350 C 284.240 190.482,286.951 192.111,290.018 193.971 C 293.085 195.831,297.496 198.502,299.820 199.907 C 302.145 201.312,306.556 203.985,309.622 205.847 C 312.689 207.709,315.967 209.693,316.906 210.257 C 319.050 211.544,323.317 214.129,328.777 217.448 C 334.094 220.681,344.474 226.963,347.932 229.041 C 348.624 229.457,351.862 231.417,355.126 233.397 C 369.869 242.340,372.466 243.914,376.439 246.315 C 378.763 247.720,382.972 250.268,385.791 251.977 C 388.611 253.686,391.929 255.695,393.165 256.440 C 394.402 257.186,396.446 258.425,397.707 259.194 L 400.000 260.592 400.000 154.756 C 400.000 96.547,399.980 48.923,399.955 48.926 C 399.930 48.928,376.075 62.374,346.942 78.804 M120.193 89.568 C 120.193 90.013,120.228 90.196,120.271 89.973 C 120.314 89.750,120.314 89.386,120.271 89.164 C 120.228 88.941,120.193 89.123,120.193 89.568 M186.151 128.653 C 186.151 128.684,186.414 128.947,186.736 129.238 L 187.320 129.766 186.792 129.182 C 186.299 128.637,186.151 128.514,186.151 128.653 M223.561 130.486 C 223.124 130.931,222.807 131.295,222.857 131.295 C 222.906 131.295,223.304 130.931,223.741 130.486 C 224.178 130.040,224.495 129.676,224.445 129.676 C 224.396 129.676,223.998 130.040,223.561 130.486 M181.361 135.881 C 181.361 136.871,181.391 137.252,181.428 136.730 C 181.464 136.207,181.464 135.398,181.427 134.931 C 181.390 134.464,181.360 134.892,181.361 135.881 M264.250 140.288 C 264.250 140.634,264.287 140.776,264.333 140.603 C 264.378 140.429,264.378 140.146,264.333 139.973 C 264.287 139.800,264.250 139.942,264.250 140.288 M225.809 142.266 C 226.297 142.761,226.736 143.165,226.785 143.165 C 226.834 143.165,226.476 142.761,225.989 142.266 C 225.502 141.772,225.063 141.367,225.014 141.367 C 224.964 141.367,225.322 141.772,225.809 142.266 M204.541 183.635 C 202.985 185.114,201.136 186.151,198.943 186.774 C 196.837 187.373,196.931 187.156,197.670 189.714 C 199.241 195.151,202.681 199.101,205.847 199.101 C 208.989 199.101,212.357 195.055,214.028 189.272 C 214.332 188.222,214.557 187.346,214.529 187.326 C 214.501 187.306,213.790 187.103,212.950 186.875 C 210.493 186.208,208.017 184.801,206.485 183.201 C 205.718 182.400,205.878 182.365,204.541 183.635 " stroke="none" fill="#5ca894" fill-rule="evenodd"></path><path id="path2" d="M0.009 4.991 L 0.019 9.982 13.355 19.155 C 20.689 24.200,33.372 32.933,41.538 38.562 C 49.704 44.191,61.848 52.561,68.525 57.162 C 75.202 61.763,84.388 68.095,88.939 71.232 C 93.489 74.369,101.340 79.774,106.385 83.243 C 115.483 89.500,119.140 92.107,119.545 92.626 C 120.231 93.506,120.282 91.930,120.310 68.894 C 120.335 48.386,120.357 46.956,120.648 47.423 C 120.717 47.534,121.067 47.977,121.426 48.407 C 122.188 49.321,123.456 50.857,126.079 54.042 C 127.118 55.303,128.453 56.919,129.047 57.633 C 129.640 58.346,130.420 59.288,130.779 59.726 C 131.138 60.163,131.935 61.129,132.549 61.871 C 133.164 62.612,133.932 63.543,134.258 63.939 C 134.583 64.335,135.324 65.233,135.905 65.935 C 136.485 66.637,138.377 68.933,140.108 71.038 C 141.839 73.142,143.741 75.447,144.335 76.159 C 144.928 76.872,145.708 77.813,146.067 78.251 C 146.683 79.002,148.597 81.318,149.251 82.104 C 149.416 82.302,150.076 83.111,150.719 83.903 C 153.637 87.493,153.877 87.519,158.503 84.742 C 160.300 83.663,161.517 83.048,162.590 82.674 C 163.035 82.519,163.844 82.221,164.388 82.012 C 169.320 80.113,177.017 78.547,182.492 78.328 C 183.664 78.281,185.755 78.201,187.140 78.149 C 188.525 78.097,189.961 77.971,190.331 77.868 C 191.113 77.652,192.618 77.571,198.954 77.405 L 203.574 77.284 203.669 76.187 C 203.975 72.664,203.931 65.448,203.417 34.802 C 203.104 16.106,202.812 0.627,202.769 0.405 L 202.691 0.000 101.345 0.000 L 0.000 0.000 0.009 4.991 M281.802 191.052 C 281.320 191.571,280.437 192.706,279.840 193.573 C 275.043 200.535,264.645 209.884,253.147 217.572 C 246.738 221.858,245.430 222.430,239.670 223.471 C 238.378 223.704,236.067 224.185,234.535 224.539 C 231.433 225.257,229.805 225.495,219.618 226.725 C 217.422 226.990,212.455 226.984,205.665 226.709 C 202.393 226.576,201.691 227.052,202.510 228.850 C 202.877 229.655,202.881 229.778,202.700 235.833 C 202.599 239.223,202.197 254.177,201.806 269.065 C 201.415 283.952,201.061 297.003,201.019 298.067 L 200.943 300.000 300.472 300.000 L 400.002 300.000 399.956 280.265 L 399.910 260.530 398.831 259.875 C 393.570 256.683,387.269 252.868,386.241 252.251 C 384.529 251.223,370.824 242.919,355.126 233.397 C 351.862 231.417,348.624 229.457,347.932 229.041 C 344.474 226.963,334.094 220.681,328.777 217.448 C 323.317 214.129,319.050 211.544,316.906 210.257 C 315.967 209.693,312.689 207.709,309.622 205.847 C 306.556 203.985,302.145 201.312,299.820 199.907 C 297.496 198.502,293.085 195.831,290.018 193.971 C 286.951 192.111,284.240 190.482,283.993 190.350 C 283.167 189.910,282.732 190.049,281.802 191.052 " stroke="none" fill="#24939c" fill-rule="evenodd"></path><path id="path3" d="M120.238 69.649 C 120.187 81.841,120.099 102.662,120.043 115.917 C 119.901 149.802,120.118 155.991,121.951 170.324 C 122.619 175.553,122.902 177.211,123.557 179.750 C 125.179 186.035,125.697 186.913,131.298 192.896 C 132.410 194.083,134.381 196.349,135.679 197.932 C 144.156 208.270,152.292 214.651,161.781 218.401 C 171.755 222.342,174.124 223.160,179.291 224.448 C 185.666 226.036,185.808 226.052,195.123 226.247 C 199.316 226.335,202.796 226.475,202.857 226.558 C 202.978 226.723,205.434 226.790,213.399 226.846 C 218.364 226.881,218.823 226.855,222.932 226.306 C 225.306 225.989,228.260 225.606,229.496 225.455 C 230.733 225.304,232.918 224.902,234.353 224.563 C 235.787 224.223,238.336 223.691,240.018 223.381 C 245.387 222.392,246.770 221.782,252.878 217.712 C 264.674 209.851,279.167 196.652,280.105 192.917 C 280.171 192.651,280.739 191.567,281.367 190.506 C 283.387 187.095,284.572 184.346,287.572 176.111 C 290.083 169.218,289.831 171.044,289.859 159.532 C 289.880 150.638,289.850 149.492,289.590 149.011 C 289.329 148.527,289.286 146.549,289.182 129.946 C 289.099 116.759,289.003 111.058,288.848 110.162 C 288.687 109.227,288.611 101.550,288.553 80.351 C 288.510 64.647,288.417 51.799,288.347 51.799 C 288.276 51.799,280.773 59.252,271.672 68.363 C 251.313 88.744,253.373 87.025,251.203 85.443 C 248.737 83.646,244.635 81.840,239.145 80.137 C 230.403 77.424,224.909 76.766,214.076 77.135 C 211.033 77.239,208.219 77.283,207.824 77.233 C 207.428 77.182,206.416 77.213,205.576 77.301 C 204.735 77.389,204.027 77.413,204.002 77.354 C 203.900 77.111,190.374 77.692,189.944 77.958 C 189.834 78.026,187.742 78.153,185.295 78.240 C 174.487 78.626,164.794 80.984,158.487 84.763 C 156.501 85.953,154.452 86.871,153.781 86.871 C 153.160 86.871,152.234 85.825,144.215 76.079 C 127.195 55.394,120.630 47.482,120.485 47.482 C 120.401 47.482,120.290 57.457,120.238 69.649 M162.485 124.505 C 160.055 132.090,160.261 138.367,163.138 144.405 C 164.032 146.282,164.042 146.275,162.014 145.190 C 156.808 142.404,150.528 137.610,150.817 136.642 C 151.727 133.593,156.880 127.389,160.252 125.282 C 162.309 123.998,162.690 123.865,162.485 124.505 M180.561 124.439 C 184.791 126.046,189.238 131.227,192.080 137.860 L 193.005 140.018 192.501 140.429 C 192.223 140.656,191.511 141.134,190.917 141.493 C 190.324 141.851,188.988 142.674,187.950 143.322 C 185.613 144.778,183.478 145.714,181.138 146.307 C 178.618 146.946,178.720 146.994,179.314 145.450 C 181.746 139.134,181.947 131.983,179.866 125.809 C 179.566 124.919,179.320 124.170,179.319 124.146 C 179.313 124.027,179.751 124.131,180.561 124.439 M234.741 124.685 C 233.451 126.778,233.053 128.089,232.730 131.296 C 232.404 134.543,232.604 136.343,234.178 144.321 C 234.372 145.302,234.505 146.130,234.475 146.160 C 234.335 146.301,229.136 144.709,228.334 144.280 C 227.836 144.013,226.775 143.147,225.978 142.356 C 224.572 140.962,224.141 140.403,221.555 136.623 L 220.340 134.846 220.685 134.170 C 222.544 130.526,228.001 126.364,233.273 124.569 C 235.074 123.956,235.185 123.965,234.741 124.685 M251.231 126.056 C 251.494 126.241,252.127 126.603,252.638 126.861 C 254.383 127.740,257.989 130.284,259.397 131.629 C 261.782 133.907,264.235 138.124,264.276 140.015 L 264.299 141.059 262.680 142.028 C 257.812 144.942,251.185 147.482,248.449 147.482 L 248.017 147.482 248.674 146.178 C 250.888 141.787,251.902 132.828,250.797 127.428 C 250.410 125.534,250.425 125.487,251.231 126.056 M206.396 183.109 C 207.965 184.758,210.267 186.085,212.813 186.807 C 213.729 187.067,214.501 187.298,214.529 187.321 C 215.129 187.807,212.137 194.369,210.388 196.403 C 205.898 201.625,200.248 198.638,197.658 189.672 C 197.350 188.608,197.060 187.636,197.012 187.513 C 196.954 187.361,197.438 187.154,198.508 186.873 C 201.184 186.168,202.745 185.320,204.623 183.549 C 205.858 182.386,205.736 182.416,206.396 183.109 " stroke="none" fill="#040404" fill-rule="evenodd"></path><path id="path4" d="M213.894 77.111 C 214.364 77.148,215.133 77.148,215.603 77.111 C 216.072 77.074,215.688 77.043,214.748 77.043 C 213.808 77.043,213.424 77.074,213.894 77.111 M222.257 77.109 C 222.579 77.148,223.105 77.148,223.426 77.109 C 223.748 77.069,223.485 77.036,222.842 77.036 C 222.199 77.036,221.936 77.069,222.257 77.109 M288.721 108.363 C 288.722 108.858,288.757 109.039,288.798 108.766 C 288.839 108.492,288.838 108.087,288.796 107.866 C 288.753 107.645,288.719 107.869,288.721 108.363 M289.295 131.655 C 289.295 140.706,289.317 144.409,289.343 139.883 C 289.370 135.357,289.370 127.952,289.343 123.426 C 289.317 118.901,289.295 122.603,289.295 131.655 M289.804 152.248 C 289.805 152.842,289.839 153.063,289.879 152.740 C 289.919 152.416,289.918 151.931,289.877 151.660 C 289.836 151.390,289.803 151.655,289.804 152.248 M129.227 190.827 C 129.613 191.223,129.970 191.547,130.019 191.547 C 130.069 191.547,129.793 191.223,129.406 190.827 C 129.020 190.432,128.664 190.108,128.614 190.108 C 128.565 190.108,128.840 190.432,129.227 190.827 M131.655 193.402 C 131.655 193.433,131.918 193.696,132.239 193.986 L 132.824 194.514 132.295 193.930 C 131.803 193.385,131.655 193.263,131.655 193.402 M272.381 202.203 L 271.853 202.788 272.437 202.260 C 272.982 201.767,273.104 201.619,272.965 201.619 C 272.934 201.619,272.671 201.882,272.381 202.203 M140.018 203.058 C 140.705 203.750,141.308 204.317,141.357 204.317 C 141.407 204.317,140.885 203.750,140.198 203.058 C 139.511 202.365,138.908 201.799,138.859 201.799 C 138.809 201.799,139.331 202.365,140.018 203.058 M143.435 206.475 C 144.122 207.167,144.725 207.734,144.775 207.734 C 144.824 207.734,144.302 207.167,143.615 206.475 C 142.928 205.782,142.325 205.216,142.276 205.216 C 142.226 205.216,142.748 205.782,143.435 206.475 M188.806 226.206 C 189.030 226.249,189.354 226.248,189.525 226.203 C 189.697 226.158,189.514 226.122,189.119 226.124 C 188.723 226.126,188.582 226.163,188.806 226.206 M194.829 226.393 C 195.695 226.426,197.111 226.426,197.977 226.393 C 198.842 226.360,198.134 226.333,196.403 226.333 C 194.672 226.333,193.964 226.360,194.829 226.393 M201.664 226.563 C 201.837 226.608,202.120 226.608,202.293 226.563 C 202.466 226.518,202.325 226.481,201.978 226.481 C 201.632 226.481,201.491 226.518,201.664 226.563 " stroke="none" fill="#505d2e" fill-rule="evenodd"></path></g></svg>
